<svg xmlns="http://www.w3.org/2000/svg" xmlns:xlink="http://www.w3.org/1999/xlink"><symbol viewBox="0 0 24 24" fill="currentColor" class="asize-12" id="chatbubbleleftright" xmlns="http://www.w3.org/2000/svg"><path d="M4.913 2.658a49.272 49.272 0 0 1 12.674 0c1.922.25 3.291 1.861 3.405 3.727a4.403 4.403 0 0 0-1.032-.211 50.89 50.89 0 0 0-8.42 0c-2.358.196-4.04 2.19-4.04 4.434v4.286a4.47 4.47 0 0 0 2.433 3.984L7.28 21.53A.75.75 0 0 1 6 21v-4.03a48.527 48.527 0 0 1-1.087-.128C2.905 16.58 1.5 14.833 1.5 12.862V6.638c0-1.97 1.405-3.718 3.413-3.979Z"/><path d="M15.75 7.5c-1.376 0-2.739.057-4.086.169C10.124 7.797 9 9.103 9 10.609v4.285c0 1.507 1.128 2.814 2.67 2.94 1.243.102 2.5.157 3.768.165l2.782 2.781a.75.75 0 0 0 1.28-.53v-2.39l.33-.026c1.542-.125 2.67-1.433 2.67-2.94v-4.286c0-1.505-1.125-2.811-2.664-2.94A49.392 49.392 0 0 0 15.75 7.5Z"/></symbol><symbol viewBox="0 0 24 24" fill="currentColor" class="bsize-12" id="lock" xmlns="http://www.w3.org/2000/svg"><path fill-rule="evenodd" d="M12 1.5a5.25 5.25 0 0 0-5.25 5.25v3a3 3 0 0 0-3 3v6.75a3 3 0 0 0 3 3h10.5a3 3 0 0 0 3-3v-6.75a3 3 0 0 0-3-3v-3c0-2.9-2.35-5.25-5.25-5.25Zm3.75 8.25v-3a3.75 3.75 0 1 0-7.5 0v3h7.5Z" clip-rule="evenodd"/></symbol><symbol class="ch-6 cw-6" fill="none" viewBox="0 0 24 24" stroke="currentColor" id="moon" xmlns="http://www.w3.org/2000/svg"><path stroke-linecap="round" stroke-linejoin="round" stroke-width="2" d="M20.354 15.354A9 9 0 0 1 8.646 3.646 9.003 9.003 0 0 0 12 21a9.003 9.003 0 0 0 8.354-5.646z"/></symbol><symbol class="dmr-2 dh-6 dw-6 dtext-indigo-600 ddark:text-indigo-400" fill="none" viewBox="0 0 24 24" stroke="currentColor" id="pseudocrown" xmlns="http://www.w3.org/2000/svg"><path stroke-linecap="round" stroke-linejoin="round" stroke-width="2" d="M12 11a2 2 0 0 0-4 0v1H5v7h14v-7h-3v-1a2 2 0 0 0-4 0z"/></symbol><symbol fill="none" viewBox="0 0 24 24" stroke-width="1.5" stroke="currentColor" class="esize-12" id="questionmarkcircle" xmlns="http://www.w3.org/2000/svg"><path stroke-linecap="round" stroke-linejoin="round" d="M9.879 7.519c1.171-1.025 3.071-1.025 4.242 0 1.172 1.025 1.172 2.687 0 3.712-.203.179-.43.326-.67.442-.745.361-1.45.999-1.45 1.827v.75M21 12a9 9 0 1 1-18 0 9 9 0 0 1 18 0Zm-9 5.25h.008v.008H12v-.008Z"/></symbol><symbol class="fh-6 fw-6" fill="none" viewBox="0 0 24 24" stroke="currentColor" id="sunlight" xmlns="http://www.w3.org/2000/svg"><path stroke-linecap="round" stroke-linejoin="round" stroke-width="2" d="M12 3v1m0 16v1m9-9h-1M4 12H3m15.364 6.364-.707-.707M6.343 6.343l-.707-.707m12.728 0-.707.707M6.343 17.657l-.707.707M16 12a4 4 0 1 1-8 0 4 4 0 0 1 8 0z"/></symbol><symbol viewBox="0 0 448 512" id="usersecret" xmlns="http://www.w3.org/2000/svg"><path d="m383.9 308.3 23.9-62.6c4-10.5-3.7-21.7-15-21.7h-58.5c11-18.9 17.8-40.6 17.8-64v-.3c39.2-7.8 64-19.1 64-31.7 0-13.3-27.3-25.1-70.1-33-9.2-32.8-27-65.8-40.6-82.8-9.5-11.9-25.9-15.6-39.5-8.8l-27.6 13.8c-9 4.5-19.6 4.5-28.6 0L182.1 3.4c-13.6-6.8-30-3.1-39.5 8.8-13.5 17-31.4 50-40.6 82.8-42.7 7.9-70 19.7-70 33 0 12.6 24.8 23.9 64 31.7v.3c0 23.4 6.8 45.1 17.8 64H56.3c-11.5 0-19.2 11.7-14.7 22.3l25.8 60.2C27.3 329.8 0 372.7 0 422.4v44.8C0 491.9 20.1 512 44.8 512h358.4c24.7 0 44.8-20.1 44.8-44.8v-44.8c0-48.4-25.8-90.4-64.1-114.1zM176 480l-41.6-192 49.6 32 24 40-32 120zm96 0-32-120 24-40 49.6-32L272 480zm41.7-298.5c-3.9 11.9-7 24.6-16.5 33.4-10.1 9.3-48 22.4-64-25-2.8-8.4-15.4-8.4-18.3 0-17 50.2-56 32.4-64 25-9.5-8.8-12.7-21.5-16.5-33.4-.8-2.5-6.3-5.7-6.3-5.8v-10.8c28.3 3.6 61 5.8 96 5.8s67.7-2.1 96-5.8v10.8c-.1.1-5.6 3.2-6.4 5.8z"/></symbol></svg>