<svg xmlns="http://www.w3.org/2000/svg" xmlns:xlink="http://www.w3.org/1999/xlink"><symbol class="ah-6 aw-6" fill="none" viewBox="0 0 24 24" stroke="currentColor" id="moon" xmlns="http://www.w3.org/2000/svg"><path stroke-linecap="round" stroke-linejoin="round" stroke-width="2" d="M20.354 15.354A9 9 0 0 1 8.646 3.646 9.003 9.003 0 0 0 12 21a9.003 9.003 0 0 0 8.354-5.646z"/></symbol><symbol class="bh-6 bw-6" fill="none" viewBox="0 0 24 24" stroke="currentColor" id="sunlight" xmlns="http://www.w3.org/2000/svg"><path stroke-linecap="round" stroke-linejoin="round" stroke-width="2" d="M12 3v1m0 16v1m9-9h-1M4 12H3m15.364 6.364-.707-.707M6.343 6.343l-.707-.707m12.728 0-.707.707M6.343 17.657l-.707.707M16 12a4 4 0 1 1-8 0 4 4 0 0 1 8 0z"/></symbol></svg>